<svg width="155" height="144" viewBox="0 0 155 144" fill="none" xmlns="http://www.w3.org/2000/svg">
<path d="M17.8969 20.32C18.2165 22.4 20.2938 23.36 25.2474 23.68C30.5206 24 32.4381 24.96 33.5567 27.68C35.9536 33.92 43.6237 99.52 42.0258 100.64C41.067 101.12 39.6289 103.2 38.5103 105.12C35.7938 110.4 38.6701 116.16 45.3814 118.4C49.3763 119.68 51.134 121.28 51.134 123.36C51.134 127.2 56.567 132.8 60.5619 132.8C64.5567 132.8 69.9897 128 70.6289 124C71.268 119.52 73.3454 118.4 81.0155 118.4C90.1237 118.4 92.6804 119.68 92.6804 124.16C92.6804 126.4 94.2784 128.96 96.8351 130.56C102.747 134.56 108.979 132 111.216 124.8C112.655 120.32 113.933 119.04 117.608 118.72C125.598 117.92 126.876 117.12 124.639 114.4C123.041 112.32 116.17 112 83.732 112C50.8144 112 44.7423 111.68 44.7423 109.76C44.7423 108.48 45.3814 107.04 46.1804 106.56C46.9794 106.08 63.2784 104.16 82.4536 102.4C101.789 100.64 118.727 98.72 120.325 98.24C121.763 97.76 123.84 96 124.639 94.24C126.716 90.56 132.789 48 131.67 46.08C131.191 45.44 111.376 44.8 87.7268 44.8H44.7423L43.1443 40.64C42.1856 38.4 41.5464 34.4 41.5464 31.84C41.5464 26.72 38.9897 20.8 36.1134 18.88C35.1546 18.24 30.5206 17.6 25.8866 17.6C18.5361 17.6 17.4175 18.08 17.8969 20.32ZM57.366 67.52C58.0052 69.6 59.1237 77.12 59.6031 84.48L60.5619 97.76L55.4485 97.28L50.3351 96.8L48.2577 82.72C46.9794 74.88 46.5 67.52 46.9794 66.24C48.4175 62.56 55.768 63.52 57.366 67.52ZM78.9381 64.96C81.0155 65.76 81.4948 68.8 81.4948 80.96V96H74.4639H67.433L66.3144 82.4C65.6753 75.04 65.5155 67.84 66.1546 66.4C66.9536 64 74.1443 63.2 78.9381 64.96ZM102.588 64.8C104.345 65.6 104.505 68.32 103.546 78.56C102.907 85.6 101.948 92 101.469 92.96C100.83 93.76 97.634 94.4 94.1186 94.4H87.8866V80.32C87.8866 72.48 88.366 65.6 89.0052 65.12C90.2835 63.84 99.5515 63.68 102.588 64.8ZM121.124 65.44C122.881 66.4 122.881 68.96 121.124 79.36C119.046 91.84 119.046 92 113.933 92.48C108.979 92.96 108.82 92.8 109.459 87.68C109.778 84.8 110.577 78.88 111.057 74.72C111.376 70.4 112.175 66.24 112.814 65.44C113.933 63.68 118.407 63.68 121.124 65.44Z" fill="black"/>
</svg>
