<svg width="379" height="379" viewBox="0 0 379 379" fill="none" xmlns="http://www.w3.org/2000/svg">
<path d="M378.5 378.5L0 0H378.5V378.5Z" fill="#2B2B2B"/>
<path d="M236.96 167.576C232.565 167.576 228.747 166.637 225.504 164.76C222.304 162.883 219.829 160.195 218.08 156.696C216.331 153.197 215.456 149.101 215.456 144.408C215.456 139.715 216.309 135.64 218.016 132.184C219.765 128.685 222.261 125.997 225.504 124.12C228.747 122.243 232.565 121.304 236.96 121.304C241.355 121.304 245.152 122.243 248.352 124.12C251.595 125.997 254.069 128.685 255.776 132.184C257.525 135.64 258.4 139.715 258.4 144.408C258.4 149.101 257.525 153.197 255.776 156.696C254.027 160.195 251.531 162.883 248.288 164.76C245.088 166.637 241.312 167.576 236.96 167.576ZM236.96 160.984C241.099 160.984 244.32 159.555 246.624 156.696C248.971 153.837 250.144 149.741 250.144 144.408C250.144 139.075 248.971 135 246.624 132.184C244.32 129.325 241.099 127.896 236.96 127.896C232.779 127.896 229.515 129.325 227.168 132.184C224.864 135 223.712 139.075 223.712 144.408C223.712 149.741 224.864 153.837 227.168 156.696C229.515 159.555 232.779 160.984 236.96 160.984Z" fill="white"/>
<path d="M270.835 167.384C269.598 167.384 268.595 167 267.827 166.232C267.102 165.464 266.739 164.461 266.739 163.224V125.784C266.739 124.547 267.08 123.587 267.763 122.904C268.488 122.221 269.47 121.88 270.707 121.88H293.171C295.774 121.88 297.075 122.989 297.075 125.208C297.075 127.384 295.774 128.472 293.171 128.472H274.867V140.76H291.891C294.494 140.76 295.795 141.869 295.795 144.088C295.795 146.264 294.494 147.352 291.891 147.352H274.867V163.224C274.867 164.461 274.504 165.464 273.779 166.232C273.054 167 272.072 167.384 270.835 167.384Z" fill="white"/>
<path d="M307.085 167.384C305.848 167.384 304.845 167 304.077 166.232C303.352 165.464 302.989 164.461 302.989 163.224V125.784C302.989 124.547 303.33 123.587 304.013 122.904C304.738 122.221 305.72 121.88 306.957 121.88H329.421C332.024 121.88 333.325 122.989 333.325 125.208C333.325 127.384 332.024 128.472 329.421 128.472H311.117V140.76H328.141C330.744 140.76 332.045 141.869 332.045 144.088C332.045 146.264 330.744 147.352 328.141 147.352H311.117V163.224C311.117 164.461 310.754 165.464 310.029 166.232C309.304 167 308.322 167.384 307.085 167.384Z" fill="white"/>
</svg>
